<svg width="120" height="32" viewBox="0 0 120 32" fill="none" xmlns="http://www.w3.org/2000/svg">
<g clip-path="url(#clip0)">
<path d="M25.2455 0H7.4012C3.32934 0 0 3.26339 0 7.25458V24.7219C0 28.7366 3.32934 31.9765 7.4012 31.9765H25.2216C29.3174 31.9765 32.6228 28.7131 32.6228 24.7219V7.25458C32.6467 3.26339 29.3413 0 25.2455 0Z" fill="#DF0011"/>
<path d="M25.1976 6.949C23.9282 6.26815 23.3294 4.67168 23.3294 4.67168C22.6348 3.23954 21.2216 3.14563 20.9342 3.14563H16.2156C14.9701 3.14563 14.2036 3.14563 13.2456 4.90645C12.9102 5.54035 12.0959 6.12729 11.521 6.33859C10.2755 6.80814 6.53896 7.48899 6.49106 7.48899C4.28747 7.81768 3.01801 9.88371 3.01801 11.3863V22.5851C3.01801 24.3224 4.45513 25.7546 6.22759 25.7546H7.20962C7.32938 25.7546 7.42519 25.6607 7.42519 25.5433V25.0033C7.42519 24.8859 7.32938 24.792 7.20962 24.792H6.22759C5.00603 24.792 4.00004 23.8294 4.00004 22.6086V11.4332C4.00004 11.3863 4.23956 8.96808 6.63477 8.49853C6.73058 8.47505 10.4911 7.7942 11.8563 7.30117C12.5988 7.01944 13.6288 6.29163 14.1078 5.39948C14.7785 4.15517 14.9941 4.15517 16.1677 4.15517H20.9342C20.9342 4.15517 21.8923 4.08473 22.4192 5.16471C22.6587 5.51687 22.9701 6.87857 24.6707 7.81768C27.1617 9.17938 28.5749 9.34372 28.5749 11.175V23.0312C28.5749 24.0172 27.7605 24.8155 26.7545 24.8155H25.7246C25.6048 24.8155 25.509 24.9094 25.509 25.0268V25.5668C25.509 25.6841 25.6048 25.7781 25.7246 25.7781H26.7545C28.3114 25.7781 29.5809 24.5337 29.5809 23.0077V11.175C29.6288 8.68635 27.6647 8.28723 25.1976 6.949ZM25.7725 25.2615C25.7725 25.2381 25.7725 25.2381 25.7725 25.2615V25.2615Z" fill="white"/>
<path d="M18.5389 23.3603H8.45508V19.1813H17.9641L18.5389 19.7682V23.3603ZM9.50897 22.3273H17.485V20.1908H9.50897V22.3273Z" fill="white"/>
<path d="M18.9701 17.0214H7.90424V18.0544H18.9701V17.0214Z" fill="white"/>
<path d="M13.964 15.4244H12.9102V17.2792H13.964V15.4244Z" fill="white"/>
<path d="M13.9641 28.8311H11.4252V27.8215H12.9102V22.9382H13.9641V28.8311Z" fill="white"/>
<path d="M9.86826 27.5396L8.83832 28.0795V24.3231H9.86826V27.5396Z" fill="white"/>
<path d="M18.1078 24.3231H17.0539V28.0795H18.1078V24.3231Z" fill="white"/>
<path d="M18.5389 15.8706H8.45508V9.95428H17.9641L18.5389 10.5647V15.8706ZM9.50897 14.8611H17.485V10.9638H9.50897V14.8611Z" fill="white"/>
<path d="M18.0119 12.5379H9.07782V13.5709H18.0119V12.5379Z" fill="white"/>
<path d="M25.533 11.1757V9.9079L20.0001 14.1573V15.4251L25.533 11.1757Z" fill="white"/>
<path d="M25.533 17.3026V16.0348L20.0001 20.2608V21.5286L25.533 17.3026Z" fill="white"/>
<path d="M25.533 23.4071V22.1393L20.0001 26.3653V27.6331L25.533 23.4071Z" fill="white"/>
<path d="M83.9282 20.8472H71.6407V15.7525H83.2336L83.9282 16.4803V20.8472V20.8472ZM72.9102 19.6028H82.6587V16.9968H72.9102V19.6028Z" fill="#444444"/>
<path d="M84.479 13.1248H70.97V14.3691H84.479V13.1248Z" fill="#444444"/>
<path d="M78.3472 11.1746H77.0778V13.4284H78.3472V11.1746Z" fill="#444444"/>
<path d="M78.3473 27.5388H75.0179V26.2945H77.0778V20.3546H78.3473V27.5388Z" fill="#444444"/>
<path d="M73.3653 25.9422L72.0958 26.5996V22.0215H73.3653V25.9422Z" fill="#444444"/>
<path d="M83.4012 22.0215H82.1317V26.5996H83.4012V22.0215Z" fill="#444444"/>
<path d="M83.9282 11.7387H71.6407V4.50763H83.2336L83.9282 5.23544V11.7387V11.7387ZM72.9102 10.4709H82.6587V5.75194H72.9102V10.4709Z" fill="#444444"/>
<path d="M83.2814 7.65356H72.4072V8.89788H83.2814V7.65356Z" fill="#444444"/>
<path d="M92.4551 6.01071V4.46118L85.7246 9.64974V11.1993L92.4551 6.01071Z" fill="#DF0011"/>
<path d="M85.7246 18.6654L92.4551 13.4768V11.9273L85.7246 17.1159V18.6654Z" fill="#DF0011"/>
<path d="M85.7246 24.581V26.1306L92.4551 20.9655V19.416L85.7246 24.581Z" fill="#DF0011"/>
<path d="M54.2276 16.4115V18.2428L62.8503 27.1173H64.7426L54.2276 16.4115Z" fill="#444444"/>
<path d="M64.6228 10.4702H41.2216V11.7145H64.6228V10.4702Z" fill="#444444"/>
<path d="M41.1019 27.1168L52.4791 15.3546L53.533 16.2937L43.018 27.1168H41.1019Z" fill="#444444"/>
<path d="M53.5809 16.247V4.46118H52.3114V16.4113H53.4132L53.5809 16.247Z" fill="#444444"/>
<path d="M110.06 19.0649V20.591L110.946 20.0275V18.525L110.06 19.0649Z" fill="#595757"/>
<path d="M119.952 7.51324H98.5869V6.26892H119.258L119.952 6.99673V7.51324Z" fill="#444444"/>
<path d="M110.97 26.2948H106.659V27.5391H110.97V26.2948Z" fill="#444444"/>
<path d="M109.916 4.46118H108.647V6.73851H109.916V4.46118Z" fill="#444444"/>
<path d="M99.8563 6.26892H98.5869V9.79056H99.8563V6.26892Z" fill="#444444"/>
<path d="M118.683 9.79075V7.02039H119.952V7.18473V9.79075H118.683Z" fill="#444444"/>
<path d="M110.587 16.8812L107.952 12.2326L108.671 11.1292L110.97 15.2612L110.587 16.8812Z" fill="#444444"/>
<path d="M110.97 15.2601H109.701V27.5389H110.97V15.2601Z" fill="#444444"/>
<path d="M118.635 10.9168H99.8564V12.1611H118.635V10.9168Z" fill="#444444"/>
<path d="M120 27.0233L112.695 17.7262L112.216 19.2522L118.323 27.0233H120Z" fill="#444444"/>
<path d="M112.216 17.7247V19.2507L118.635 15.2595V13.757L112.216 17.7247Z" fill="#444444"/>
<path d="M110.06 16.5983V15.0957L99.8564 21.3877V22.8903L110.06 16.5983Z" fill="#444444"/>
<path d="M109.054 13.0297L108.455 11.8793L99.8564 17.1853V18.6878L109.054 13.0297Z" fill="#444444"/>
<path d="M110.06 20.8012V19.2751L99.8564 25.5671V27.0932L110.06 20.8012Z" fill="#444444"/>
</g>
<defs>
<clipPath id="clip0">
<rect width="120" height="32" fill="white"/>
</clipPath>
</defs>
</svg>
